<?xml version="1.0" standalone="no"?><!DOCTYPE svg PUBLIC "-//W3C//DTD SVG 1.1//EN" "http://www.w3.org/Graphics/SVG/1.1/DTD/svg11.dtd"><svg t="1677848155483" class="icon" viewBox="0 0 1140 1024" version="1.1" xmlns="http://www.w3.org/2000/svg" p-id="3633" width="17.8125" height="16" xmlns:xlink="http://www.w3.org/1999/xlink"><path d="M570.356072 1001.934188c302.856493 0 548.4193-196.785749 548.4193-439.638719S873.212565 122.527711 570.356072 122.527711 21.936772 319.4425 21.936772 562.295469s245.562806 439.638719 548.4193 439.638719z m0 21.936772C256.273113 1023.87096 0 818.439542 0 562.295469S256.273113 100.590939 570.356072 100.590939s570.356072 205.431418 570.356072 461.70453-256.273113 461.575491-570.356072 461.575491z" fill="#564C45" p-id="3634"></path><path d="M21.936772 562.295469a548.4193 439.767759 0 1 0 1096.8386 0 548.4193 439.767759 0 1 0-1096.8386 0Z" fill="#FFA96F" p-id="3635"></path><path d="M468.543642 105.107333a123.620162 123.620162 0 0 0 84.521092 1.419438c-10.968386-39.48619-29.163003-64.519918-54.84193-74.714064-38.711951-15.61382-77.423901-9.807027-84.521092 8.516629s16.388059 49.293217 54.84193 64.777997z" fill="#ADD382" p-id="3636"></path><path d="M667.135948 105.107333a123.362083 123.362083 0 0 1-83.875893 1.419438q16.259019-59.229284 54.84193-74.714064c38.711951-15.61382 77.423901-9.807027 84.392053 8.516629s-16.904218 49.293217-55.35809 64.777997zM452.542702 168.207813a200.398864 200.398864 0 0 1 103.231868-31.35668c0 42.583146-12.903984 73.165587-38.71195 91.360203-38.711951 27.356445-87.101889 34.453636-103.231868 19.485015s-0.38712-52.132093 38.71195-79.488538zM686.491924 168.207813c38.711951 27.356445 54.71289 64.519918 38.71195 79.488538s-64.519918 7.87143-103.231868-19.485015c-25.807967-18.194617-38.711951-48.777058-38.711951-91.360203a199.882705 199.882705 0 0 1 103.231869 31.35668z" fill="#ADD382" p-id="3637"></path><path d="M468.672682 104.333094a123.620162 123.620162 0 0 0 84.521092 1.419438Q536.805715 46.523248 498.351844 31.038468c-38.711951-15.61382-77.423901-9.807027-84.521092 8.516629s16.388059 49.293217 54.84193 64.777997z m-8.25855 20.388294c-46.9705-18.968856-80.520857-59.874484-66.971674-93.424841s66.068396-39.615229 113.038895-20.646373c32.776118 12.903984 55.229049 43.744504 67.745914 89.166526l5.677753 20.517334-20.259255 6.322952a145.815014 145.815014 0 0 1-99.231633-1.935598z" fill="#4A4E44" p-id="3638"></path><path d="M667.135948 104.333094c38.711951-15.48478 62.197201-46.454341 54.84193-64.519917s-46.067221-24.130449-84.521092-8.51663c-25.807967 10.323187-43.873544 35.227875-54.84193 74.714065a123.620162 123.620162 0 0 0 84.521092-1.677518z m8.12951 20.388294a145.427894 145.427894 0 0 1-99.102594 1.935598l-20.388294-6.322952 5.677753-20.517334c12.645904-45.422022 34.711716-75.488304 67.745914-89.166526 47.09954-18.968856 99.489713-12.903984 113.038895 20.646373s-19.872135 74.455985-66.971674 93.424841z" fill="#4A4E44" p-id="3639"></path><path d="M452.542702 168.207813c-38.711951 27.356445-54.58385 64.519918-38.71195 79.488538s64.519918 7.87143 103.231868-19.485015c25.807967-18.194617 38.711951-48.777058 38.71195-91.360203a200.398864 200.398864 0 0 0-103.231868 31.35668z m-12.903983-17.936537a220.529078 220.529078 0 0 1 114.845453-35.614995l23.098131-1.419438v23.09813c0 49.422257-15.226701 86.843809-47.873779 109.55482-45.292982 31.743799-104.264187 42.066986-130.717353 17.678458-30.582441-28.259724-6.581032-80.004698 41.034667-113.296975z" fill="#4A4E44" p-id="3640"></path><path d="M686.491924 168.207813a199.882705 199.882705 0 0 0-103.231869-31.35668c0 42.583146 12.903984 73.165587 38.711951 91.360203 38.711951 27.356445 86.972849 34.453636 103.231868 19.485015s0-52.132093-38.71195-79.488538z m12.903983-17.936537c47.615699 33.292277 71.617109 85.037251 40.647548 113.555055-25.807967 24.388529-85.295331 14.065342-130.717353-17.678458-32.518038-22.711011-48.260898-60.132563-47.744739-109.55482V113.494922l23.22717 1.161359a220.916198 220.916198 0 0 1 114.587374 35.614995z" fill="#4A4E44" p-id="3641"></path><path d="M325.180385 643.719606a105.296506 105.296506 0 1 1 105.296505-105.296506 105.296506 105.296506 0 0 1-105.296505 105.296506z m505.449035 0a105.296506 105.296506 0 1 1 105.296505-105.296506 105.296506 105.296506 0 0 1-105.812665 105.296506z" fill="#FFC9A5" p-id="3642"></path><path d="M514.223743 454.418167a21.033493 21.033493 0 0 1 21.033494 21.549653v21.033493a21.033493 21.033493 0 0 1-42.066987 0v-21.033493a21.033493 21.033493 0 0 1 21.033493-21.549653z m126.329999 0a21.033493 21.033493 0 0 1 21.033493 21.549653v21.033493a21.033493 21.033493 0 0 1-42.066986 0v-21.033493a21.033493 21.033493 0 0 1 21.033493-21.549653z" fill="#534A41" p-id="3643"></path><path d="M397.958852 517.518647a10.968386 10.968386 0 0 1 21.936772 0c0 93.295801 70.71383 168.655065 157.428599 168.655064s157.557639-75.359264 157.557639-168.655064a10.968386 10.968386 0 0 1 21.936772 0c0 105.167466-80.133738 190.720877-179.494411 190.720876s-179.365371-85.553411-179.365371-190.720876z" fill="#534A41" p-id="3644"></path></svg>